<svg xmlns="http://www.w3.org/2000/svg" fill="#181818" viewBox="0 0 809 626">
	<path d="M601.38 341.95H351.8l29.91-52.7 127.49-.5L373.12 52.14 403.69 0z"></path>
	<path d="M493.84 280H433.7l-66.15-114.17L228.6 406.75h-61.24L346.4 98.15l.2.52 21.32-36.33z"></path>
	<path
		d="M641.64 406.75H240.71l126.76-220.76 31.33 51.99-66.23 115.36h277.74zM182 493l92 62.42 91-61.39V625h-26v-81.86l-65 46.04-64-42.97V625l-27.24.3-.76-132.29ZM405 597h135c.18-.21 12 0 12 0 7 0 8-8 8-11s0-13-10-13H448l86-52H405v-27h181v26l-44 27c20-1 46.24 10.43 46.24 37 0 19.44-12.24 42-40.24 42-11.02 0-143-1-143-1zM653 572.79v23.64h156v27.58H625V572.8c0-.33.01-.66.03-.98.25-7.22 3.33-13.74 8.17-18.52a28.19 28.19 0 0 1 19.8-8.08h119c10 0 9-12.8 9-12.8 0-6.89-6-10.83-12-10.83H626v-27.58h150c29 0 33 29.9 33 32.76v14.26c0 2.86-2 30.79-32 31.77H653ZM83 482l80 142-31 1-20-37H52l-21 37H0zm12 75-12-22-13 22z">
	</path>
	<path d="M625.03 573c-.02.33-.03.66-.03 1v-1z"></path>
</svg>